<?xml version="1.0" encoding="UTF-8" standalone="no"?>
<svg
   xmlns:dc="http://purl.org/dc/elements/1.1/"
   xmlns:cc="http://creativecommons.org/ns#"
   xmlns:rdf="http://www.w3.org/1999/02/22-rdf-syntax-ns#"
   xmlns:svg="http://www.w3.org/2000/svg"
   xmlns="http://www.w3.org/2000/svg"
   xmlns:sodipodi="http://sodipodi.sourceforge.net/DTD/sodipodi-0.dtd"
   xmlns:inkscape="http://www.inkscape.org/namespaces/inkscape"
   inkscape:version="1.0 (4035a4fb49, 2020-05-01)"
   sodipodi:docname="Cplusplus-logo.svg"
   xml:space="preserve"
   enable-background="new 0 0 306 344.35"
   viewBox="0 0 50 49.999995"
   height="49.999996"
   width="50"
   y="0px"
   x="0px"
   id="Layer_1"
   version="1.1"><metadata
   id="metadata979"><rdf:RDF><cc:Work
       rdf:about=""><dc:format>image/svg+xml</dc:format><dc:type
         rdf:resource="http://purl.org/dc/dcmitype/StillImage" /><dc:title></dc:title></cc:Work></rdf:RDF></metadata><defs
   id="defs977" /><sodipodi:namedview
   fit-margin-bottom="0"
   fit-margin-right="0"
   fit-margin-left="0"
   fit-margin-top="0"
   inkscape:current-layer="Layer_1"
   inkscape:window-maximized="0"
   inkscape:window-y="0"
   inkscape:window-x="0"
   inkscape:cy="23.874995"
   inkscape:cx="31.797803"
   inkscape:zoom="4"
   showgrid="false"
   id="namedview975"
   inkscape:window-height="520"
   inkscape:window-width="887"
   inkscape:pageshadow="2"
   inkscape:pageopacity="0"
   guidetolerance="10"
   gridtolerance="10"
   objecttolerance="10"
   borderopacity="1"
   bordercolor="#666666"
   pagecolor="#ffffff" />
<path
   style="stroke-width:0.154032"
   id="path956"
   d="M 49.36389,37.500037 C 49.75621,36.896137 50,36.215727 50,35.604717 v -21.20944 c 0,-0.61101 -0.24346,-1.29128 -0.63595,-1.89517 L 25,25.000067 Z"
   fill="#00599c" />
<path
   style="stroke-width:0.154032"
   id="path958"
   d="m 27.16503,49.541737 20.66994,-10.60464 c 0.59542,-0.30551 1.1366,-0.83303 1.52892,-1.43706 L 25,25.000067 0.63611,37.500177 c 0.39232,0.60389 0.93366,1.13156 1.52892,1.43692 l 20.66994,10.60464 c 1.19068,0.61101 3.13938,0.61101 4.33006,0 z"
   fill="#004482" />
<path
   style="stroke-width:0.154032"
   id="path960"
   d="m 49.36405,12.499957 c -0.39248,-0.60403 -0.93382,-1.13155 -1.52908,-1.43706 L 27.16503,0.4582575 c -1.19068,-0.61101 -3.13938,-0.61101 -4.33006,0 L 2.16503,11.062897 C 0.97418,11.673767 0,13.173407 0,14.395277 v 21.20944 c 0,0.61101 0.24363,1.29142 0.63611,1.89532 L 25,25.000067 Z"
   fill="#659ad2" />
<g
   transform="matrix(0.16339869,0,0,0.14520153,0,-2.5e-6)"
   id="g964">
	<path
   id="path962"
   d="m 153,274.175 c -56.243,0 -102,-45.757 -102,-102 0,-56.243 45.757,-102 102,-102 36.292,0 70.139,19.53 88.331,50.968 l -44.143,25.544 C 188.083,130.951 171.15,121.175 153,121.175 c -28.122,0 -51,22.878 -51,51 0,28.121 22.878,51 51,51 18.152,0 35.085,-9.776 44.191,-25.515 l 44.143,25.543 c -18.192,31.441 -52.04,50.972 -88.334,50.972 z"
   fill="#ffffff" />
</g>
<g
   transform="matrix(0.16339869,0,0,0.14520153,0,-2.5e-6)"
   id="g968">
	<polygon
   id="polygon966"
   points="243.666,189.175 243.666,177.841 255,177.841 255,166.508 243.666,166.508 243.666,155.175 232.334,155.175 232.334,166.508 221,166.508 221,177.841 232.334,177.841 232.334,189.175 "
   fill="#ffffff" />
</g>
<g
   transform="matrix(0.16339869,0,0,0.14520153,0,-2.5e-6)"
   id="g972">
	<polygon
   id="polygon970"
   points="286.166,189.175 286.166,177.841 297.5,177.841 297.5,166.508 286.166,166.508 286.166,155.175 274.834,155.175 274.834,166.508 263.5,166.508 263.5,177.841 274.834,177.841 274.834,189.175 "
   fill="#ffffff" />
</g>
</svg>
