<?xml version="1.0" encoding="UTF-8" standalone="no"?>
<svg
   xmlns:dc="http://purl.org/dc/elements/1.1/"
   xmlns:cc="http://creativecommons.org/ns#"
   xmlns:rdf="http://www.w3.org/1999/02/22-rdf-syntax-ns#"
   xmlns:svg="http://www.w3.org/2000/svg"
   xmlns="http://www.w3.org/2000/svg"
   xmlns:sodipodi="http://sodipodi.sourceforge.net/DTD/sodipodi-0.dtd"
   xmlns:inkscape="http://www.inkscape.org/namespaces/inkscape"
   inkscape:version="1.0 (4035a4fb49, 2020-05-01)"
   sodipodi:docname="Matlab-logo.svg"
   viewBox="0 0 50 50"
   height="50"
   width="50"
   id="svg2147"
   version="1.1">
  <metadata
     id="metadata2153">
    <rdf:RDF>
      <cc:Work
         rdf:about="">
        <dc:format>image/svg+xml</dc:format>
        <dc:type
           rdf:resource="http://purl.org/dc/dcmitype/StillImage" />
        <dc:title></dc:title>
      </cc:Work>
    </rdf:RDF>
  </metadata>
  <defs
     id="defs2151" />
  <sodipodi:namedview
     inkscape:current-layer="g2155"
     inkscape:window-maximized="1"
     inkscape:window-y="-9"
     inkscape:window-x="-9"
     inkscape:cy="30.742549"
     inkscape:cx="45.1756"
     inkscape:zoom="10.317091"
     fit-margin-bottom="50"
     fit-margin-right="50"
     inkscape:pagecheckerboard="true"
     showgrid="false"
     id="namedview2149"
     inkscape:window-height="1001"
     inkscape:window-width="1920"
     inkscape:pageshadow="2"
     inkscape:pageopacity="0"
     guidetolerance="10"
     gridtolerance="10"
     objecttolerance="10"
     borderopacity="1"
     bordercolor="#666666"
     pagecolor="#ffffff" />
  <g
     style="display:inline"
     id="g2155"
     inkscape:label="Image"
     inkscape:groupmode="layer">
    <g
       transform="translate(0.06713487,2.4528167)"
       id="g2763">
      <path
         id="path2734"
         d="m 10.576923,32.60228 c -0.08431,-0.0629 -0.153289,-0.134766 -0.153289,-0.159699 0,-0.02493 0.244566,-0.137745 0.543479,-0.250694 0.625074,-0.236194 1.052445,-0.403656 1.212374,-0.475057 0.308951,-0.137933 0.993623,-0.390617 1.01109,-0.37315 0.03602,0.03602 -0.445298,0.352433 -0.892022,0.586398 -0.24109,0.126267 -0.466843,0.252505 -0.501672,0.280528 -0.0975,0.07845 -0.961721,0.509801 -1.017394,0.507806 -0.0271,-9.69e-4 -0.118257,-0.05323 -0.202566,-0.116132 z m 2.840252,-0.59117 -0.155847,-0.02347 0.26733,-0.264177 c 0.14703,-0.145298 0.392747,-0.338477 0.546035,-0.429287 0.661593,-0.391936 0.683701,-0.370606 0.167224,0.161343 -0.199275,0.205245 -0.362318,0.398171 -0.362318,0.428725 0,0.03055 -0.03763,0.05555 -0.08361,0.05555 -0.04599,0 -0.08361,0.02508 -0.08361,0.05574 0,0.0565 -0.0173,0.05742 -0.2952,0.01557 z M 7.5628489,30.439905 C 7.3949548,30.329785 7.1108339,30.130881 6.9314693,29.997894 6.2166466,29.467903 5.2232614,28.753431 5.0009622,28.609416 4.8716704,28.525655 4.527592,28.28186 4.2363434,28.067649 3.9450948,27.853439 3.5410306,27.564716 3.338423,27.426044 3.1358153,27.287372 2.8222702,27.065106 2.641656,26.932119 1.7567274,26.280545 0.89187397,25.659604 0.64102564,25.495722 0.4877369,25.395576 0.28948766,25.253648 0.20047178,25.180326 L 0.03862473,25.047013 0.64640267,24.806704 C 0.98068054,24.674534 1.4924749,24.458148 1.7837235,24.325845 2.0749721,24.193542 3.0908584,23.780313 4.0412486,23.407558 4.9916388,23.034803 5.8599454,22.6837 5.9708183,22.627329 c 0.2273467,-0.115588 1.6853188,-0.703448 2.362515,-0.952575 0.245262,-0.09023 0.6842252,-0.2747 0.9754738,-0.40994 0.5154493,-0.239347 3.0892719,-1.253666 3.1811649,-1.253666 0.04883,0 0.02764,1.576107 -0.02228,1.656866 -0.01617,0.02616 -0.04327,0.19709 -0.06023,0.379851 -0.01696,0.18276 -0.05423,0.470251 -0.08283,0.638869 -0.08432,0.497229 -0.54653,2.243207 -0.641901,2.424749 -0.04832,0.09197 -0.088,0.199955 -0.08819,0.239958 -1.67e-4,0.04 -0.04765,0.177965 -0.105477,0.306578 -0.05782,0.128614 -0.158159,0.351614 -0.222966,0.495556 -0.06481,0.143942 -0.117831,0.300715 -0.117831,0.348384 0,0.04767 -0.02285,0.08667 -0.05077,0.08667 -0.02792,0 -0.104774,0.106605 -0.170781,0.236901 -0.287976,0.568459 -0.9896875,1.659743 -1.3158118,2.046317 -0.272874,0.323453 -0.9873277,1.076404 -1.190889,1.255058 -0.1056098,0.09269 -0.2729945,0.24608 -0.3719644,0.340871 L 7.8681104,30.640123 Z M 16.80602,16.515436 c -0.06132,-0.01475 -0.132469,-0.04662 -0.158118,-0.07083 -0.02565,-0.02421 0.262811,-0.361805 0.641026,-0.750218 l 0.687661,-0.706206 0.41703,0.06049 c 0.577851,0.08382 0.833394,0.169026 0.904309,0.301531 0.05214,0.09743 0.02955,0.140743 -0.162188,0.310891 -0.275432,0.244425 -1.172398,0.695432 -1.609514,0.809286 -0.324353,0.08448 -0.508407,0.096 -0.720206,0.04505 z m 7.998885,0.02629 c 0,-0.02714 0.263468,-0.595351 0.335869,-0.72436 0.02988,-0.05324 0.05432,-0.118582 0.05432,-0.145215 0,-0.05683 1.017272,-2.322686 1.530518,-3.409053 0.195534,-0.413879 0.396902,-0.852843 0.447484,-0.975474 0.05058,-0.122631 0.114663,-0.273132 0.142402,-0.334448 0.02774,-0.06132 0.10325,-0.249442 0.167803,-0.41806 0.12138,-0.317056 0.176838,-0.448666 0.386115,-0.9163026 0.06776,-0.1514025 0.131021,-0.314446 0.140589,-0.3623189 0.0096,-0.047873 0.107551,-0.274461 0.217741,-0.5035295 0.110191,-0.229068 0.200347,-0.44716 0.200347,-0.4846488 0,-0.037488 0.08661,-0.2582163 0.192468,-0.4905062 0.105858,-0.2322898 0.193651,-0.4343484 0.195095,-0.4490189 0.0075,-0.076631 0.05668,-0.2219136 0.169279,-0.5004755 0.06878,-0.1701644 0.201408,-0.570257 0.217028,-0.6547012 0.0042,-0.02285 0.07234,-0.1858936 0.151356,-0.3623189 0.07902,-0.1764247 0.150522,-0.3709398 0.158896,-0.4322553 0.0084,-0.061315 0.183752,-0.5002787 0.389731,-0.9754738 0.205978,-0.4751951 0.386295,-0.9246099 0.400705,-0.9986997 0.01441,-0.07409 0.112741,-0.2823735 0.218517,-0.4628527 0.105776,-0.1804792 0.19232,-0.3451181 0.19232,-0.3658642 0,-0.059456 0.406198,-0.7067141 0.45649,-0.7273957 0.02485,-0.010219 0.04518,-0.049461 0.04518,-0.087204 0,-0.090571 0.785416,-0.86968954 0.87672,-0.86968954 0.03899,0 0.07088,0.0230508 0.07088,0.0512241 0,0.0519931 -0.17192,0.39928324 -0.222966,0.45040604 -0.03843,0.038483 -0.468056,0.9109353 -0.471234,0.9569355 -0.0014,0.020438 -0.02036,0.05495 -0.0421,0.076691 -0.0785,0.078501 -0.82446,1.6362298 -0.82446,1.7216561 0,0.048163 -0.02237,0.087569 -0.0497,0.087569 -0.02733,0 -0.06463,0.059498 -0.08288,0.1322184 -0.01825,0.07272 -0.132899,0.3490757 -0.254772,0.6141236 -0.121874,0.2650478 -0.222248,0.4941563 -0.223056,0.50913 -8.08e-4,0.014974 -0.07737,0.1775815 -0.170132,0.3613501 -0.09277,0.1837693 -0.155152,0.3341255 -0.138634,0.3341255 0.01652,0 -0.03329,0.1189476 -0.110681,0.2643277 -0.07739,0.1453807 -0.140712,0.2958824 -0.140712,0.3344482 0,0.038566 -0.02508,0.07012 -0.05574,0.07012 -0.03066,0 -0.05574,0.039692 -0.05574,0.088205 0,0.079862 -0.216497,0.6282246 -0.416321,1.0544933 -0.04312,0.091973 -0.219601,0.5037408 -0.392193,0.9150395 -0.17259,0.4112983 -0.374826,0.8682403 -0.44941,1.0154265 -0.07459,0.1471859 -0.13561,0.3060709 -0.13561,0.3530769 0,0.04701 -0.02309,0.08547 -0.05131,0.08547 -0.02822,0 -0.06784,0.07525 -0.08804,0.167224 -0.0202,0.09197 -0.05982,0.167224 -0.08804,0.167224 -0.02822,0 -0.05131,0.02661 -0.05131,0.05914 0,0.03253 -0.100335,0.272307 -0.222966,0.532839 -0.122631,0.260532 -0.222965,0.486189 -0.222965,0.50146 0,0.03569 -0.438268,0.964209 -0.756722,1.603204 -0.135642,0.272174 -0.246623,0.52749 -0.246623,0.567367 0,0.03988 -0.03241,0.105651 -0.07203,0.146163 -0.03962,0.04051 -0.107173,0.161451 -0.150125,0.268753 -0.04295,0.107302 -0.09293,0.207636 -0.111072,0.222965 -0.04621,0.03905 -0.447152,0.887207 -0.447152,0.945911 0,0.02648 -0.01881,0.0565 -0.04181,0.06672 -0.02299,0.01022 -0.129599,0.193119 -0.236901,0.406446 -0.166803,0.331619 -0.334448,0.591476 -0.334448,0.51841 z"
         style="fill:#65d2cb;stroke-width:0.0557414" />
      <path
         id="path2732"
         d="m 21.259611,44.389318 c -0.106958,-0.234704 -0.365878,-0.855523 -0.575378,-1.379598 -0.2095,-0.524075 -0.498893,-1.216242 -0.643096,-1.538148 -0.144202,-0.321907 -0.372736,-0.880527 -0.507852,-1.24138 -0.135117,-0.360853 -0.293278,-0.749649 -0.35147,-0.863991 -0.117108,-0.230108 -0.11037,-0.243832 0.216178,-0.440291 0.282418,-0.16991 1.301484,-0.498791 1.755853,-0.566663 1.111646,-0.166054 3.170556,-0.128343 4.459309,0.08168 0.27592,0.04496 0.815217,0.131775 1.198439,0.192913 0.850406,0.13567 1.096588,0.205643 1.136031,0.322899 0.01667,0.04955 0.120389,0.240589 0.230494,0.424536 0.346433,0.578768 0.48121,0.911609 0.41741,1.030819 -0.07609,0.142175 -1.896399,1.776063 -2.592185,2.326714 -0.306577,0.242628 -0.74554,0.546088 -0.975473,0.674354 -0.846184,0.472038 -1.86343,0.967988 -2.195208,1.070256 -0.34234,0.105523 -1.249456,0.331518 -1.333605,0.332249 -0.02474,2.23e-4 -0.132488,-0.19164 -0.239447,-0.426345 z M 34.998157,21.911487 c -0.13485,-0.150467 -0.279516,-0.369949 -0.321479,-0.487737 -0.04196,-0.11779 -0.121286,-0.314497 -0.176272,-0.437128 -0.05499,-0.122631 -0.142254,-0.373467 -0.193928,-0.557414 -0.05167,-0.183946 -0.126814,-0.434782 -0.166979,-0.557413 -0.04016,-0.122631 -0.09067,-0.309935 -0.112235,-0.416231 -0.02157,-0.106295 -0.06041,-0.231713 -0.08631,-0.278707 -0.08112,-0.147156 -0.510883,-2.420879 -0.574544,-3.039733 -0.01892,-0.183947 -0.07188,-0.610368 -0.117689,-0.947603 -0.112996,-0.831898 -0.224559,-1.799818 -0.311603,-2.703456 -0.07647,-0.793879 -0.09828,-4.0849402 -0.03398,-5.1282055 0.08209,-1.3319264 0.107416,-1.6321733 0.176307,-2.090301 C 33.093278,5.1755853 33.118223,5 33.134882,4.877369 c 0.100154,-0.7372604 0.167181,-0.9998617 0.373741,-1.4642433 0.08548,-0.1921789 0.197163,-0.3654337 0.24818,-0.3850107 0.148474,-0.056975 0.441992,0.1389485 0.585325,0.3907039 0.226981,0.3986798 0.691565,1.7244801 0.747102,2.132036 0.01219,0.089449 0.08798,0.5012633 0.168417,0.9151429 0.08044,0.4138796 0.155469,0.8382207 0.166731,0.9429804 0.01126,0.1047598 0.04562,0.3054287 0.07635,0.4459309 0.06212,0.2840212 0.140781,0.7945586 0.130372,0.8461957 -0.0037,0.018328 0.0292,0.2892776 0.0731,0.6021109 0.0439,0.3128333 0.07534,0.5862993 0.06986,0.6077023 -0.0055,0.021403 0.0077,0.176875 0.02933,0.345492 0.03448,0.269136 0.159173,1.84875 0.2354,2.982163 0.118116,1.756241 0.120015,5.540958 0.0033,6.605351 -0.01177,0.107302 -0.03813,0.358138 -0.05859,0.557414 -0.02046,0.199275 -0.07328,0.469801 -0.117383,0.601168 -0.04411,0.131366 -0.08019,0.2915 -0.08019,0.355851 0,0.361843 -0.252052,0.826704 -0.448247,0.826704 -0.0519,0 -0.204698,-0.123108 -0.339549,-0.273574 z"
         style="fill:#fdac0e;stroke-width:0.0557414" />
      <path
         id="path2730"
         d="m 11.426979,32.418317 c 0.07664,-0.04094 0.202062,-0.09005 0.278707,-0.109127 0.07664,-0.01908 0.03902,0.01356 -0.08361,0.07253 -0.252254,0.121308 -0.408602,0.150636 -0.195095,0.0366 z M 10.080731,32.2561 C 9.9381209,32.158779 9.6703735,31.966276 9.4857363,31.828317 9.3010992,31.690357 8.8722118,31.378609 8.5326527,31.135544 8.1930942,30.892479 7.9152731,30.664403 7.9152731,30.628708 c 0,-0.03569 0.1173718,-0.16291 0.2608267,-0.282701 0.3203667,-0.26752 1.146107,-1.114226 1.3308757,-1.364665 0.074679,-0.101223 0.1579381,-0.198134 0.1850184,-0.215357 0.1158294,-0.07367 0.9654381,-1.408881 1.2347281,-1.940455 0.06601,-0.130296 0.142858,-0.236901 0.170781,-0.236901 0.02792,0 0.05077,-0.039 0.05077,-0.08667 0,-0.04767 0.05302,-0.204442 0.117831,-0.348384 0.06481,-0.143942 0.165142,-0.366942 0.222966,-0.495556 0.05782,-0.128613 0.105288,-0.266573 0.105477,-0.306578 1.67e-4,-0.04 0.03988,-0.147985 0.08819,-0.239958 0.09561,-0.181986 0.558046,-1.929447 0.641677,-2.424749 0.02847,-0.168618 0.06485,-0.444538 0.08084,-0.613155 0.01599,-0.168618 0.04719,-0.381829 0.06934,-0.473802 0.02215,-0.09197 0.04006,-0.493085 0.03981,-0.89136 l -4.46e-4,-0.724136 0.41806,-0.188328 c 0.229934,-0.103581 0.631271,-0.274893 0.891862,-0.380692 0.260591,-0.1058 0.504696,-0.232383 0.542456,-0.281295 0.05977,-0.07742 0.07961,-0.06271 0.153288,0.113628 0.04655,0.111408 0.08464,0.225184 0.08464,0.252835 0,0.02765 0.104223,0.135063 0.231606,0.238691 0.127383,0.103629 0.299408,0.251125 0.382276,0.32777 0.313864,0.290289 0.811914,0.707566 1.19286,0.999401 0.217273,0.16645 0.420126,0.330925 0.450783,0.3655 0.03066,0.03458 0.155185,0.135794 0.276728,0.224929 0.121542,0.08913 0.265208,0.20058 0.319256,0.247655 0.164947,0.143667 0.599949,0.488506 1.243481,0.985744 0.337235,0.260572 0.688406,0.5352 0.780379,0.610286 0.09197,0.07508 0.272914,0.204917 0.40209,0.288514 0.129176,0.0836 0.235781,0.17761 0.236901,0.208918 0.0022,0.06065 -0.642121,1.034752 -0.717159,1.084278 -0.02447,0.01615 -0.07715,0.09208 -0.117066,0.168721 -0.111926,0.214928 -1.003785,1.337793 -1.06257,1.337793 -0.02866,0 -0.05212,0.02633 -0.05212,0.05852 0,0.110229 -1.378103,1.696891 -1.985264,2.28571 -0.772468,0.749131 -2.318202,2.036542 -2.627333,2.188253 -0.130296,0.06394 -0.236901,0.136347 -0.236901,0.160897 0,0.02455 -0.03573,0.04463 -0.0794,0.04463 -0.06923,0 -0.743732,0.247513 -1.063298,0.390186 -0.161709,0.0722 -1.66968,0.660927 -1.809607,0.706494 -0.01642,0.0053 -0.146539,-0.0699 -0.289149,-0.167224 z m 3.812803,-0.155698 c -0.18436,-0.05323 -0.249575,-0.160603 -0.09755,-0.160603 0.04599,0 0.08361,-0.025 0.08361,-0.05555 0,-0.03055 0.163043,-0.22348 0.362318,-0.428725 0.516477,-0.531949 0.494369,-0.553279 -0.167224,-0.161343 -0.153288,0.09081 -0.400763,0.285767 -0.549943,0.433236 -0.230406,0.227763 -0.30383,0.268127 -0.487737,0.268127 -0.257067,0 -0.268593,-0.04481 -0.05018,-0.195095 0.600512,-0.413193 1.775957,-1.332697 2.244588,-1.755853 0.152786,-0.13796 0.306336,-0.267464 0.341222,-0.287786 0.05617,-0.03272 0.661221,-0.639067 1.521825,-1.525073 0.158645,-0.163329 0.319402,-0.354801 0.357236,-0.425496 0.03783,-0.07069 0.129153,-0.176017 0.202931,-0.23405 0.07378,-0.05803 0.280184,-0.304486 0.458682,-0.547672 0.178498,-0.243186 0.433967,-0.560824 0.567709,-0.705861 0.133742,-0.145038 0.268251,-0.302792 0.298909,-0.350565 0.0809,-0.126063 0.57126,-0.786265 0.65694,-0.884478 0.04012,-0.04599 0.184523,-0.259197 0.320899,-0.473802 0.136376,-0.214604 0.266885,-0.39855 0.29002,-0.408769 0.02313,-0.01022 0.04206,-0.04138 0.04206,-0.06925 0,-0.02787 0.05644,-0.11465 0.125418,-0.192844 0.06898,-0.0782 0.16323,-0.210075 0.209444,-0.293067 0.162668,-0.292117 0.522724,-0.875854 0.557231,-0.903402 0.0192,-0.01533 0.269865,-0.44175 0.557031,-0.947603 0.287166,-0.505853 0.57681,-0.994984 0.643651,-1.086957 0.06684,-0.09197 0.214936,-0.339669 0.329096,-0.550435 0.114161,-0.210767 0.280657,-0.502002 0.369993,-0.647191 0.08934,-0.145188 0.162428,-0.292559 0.162428,-0.327491 0,-0.03493 0.01992,-0.06351 0.04427,-0.06351 0.02435,0 0.15604,-0.232023 0.292642,-0.515607 0.136602,-0.283584 0.261385,-0.528149 0.277294,-0.543478 0.06865,-0.06614 0.500616,-0.949496 0.500616,-1.023738 0,-0.04499 0.01971,-0.09016 0.0438,-0.10038 0.06588,-0.02795 0.513616,-0.914075 0.513616,-1.016501 0,-0.04897 0.01896,-0.08904 0.04213,-0.08904 0.02317,0 0.07701,-0.08152 0.119641,-0.181159 0.04263,-0.09964 0.149086,-0.327965 0.236572,-0.507393 0.08749,-0.179428 0.159067,-0.361284 0.159067,-0.404124 0,-0.04284 0.02508,-0.07789 0.05574,-0.07789 0.03066,0 0.05574,-0.0292 0.05574,-0.06488 0,-0.03568 0.112876,-0.28505 0.250836,-0.554152 0.13796,-0.269102 0.250836,-0.517619 0.250836,-0.55226 0,-0.03464 0.04249,-0.105089 0.09443,-0.15655 0.11472,-0.113672 0.159287,-0.224748 -0.488047,1.216356 -0.282311,0.628484 -0.550834,1.23049 -0.596717,1.337793 -0.04588,0.107302 -0.130289,0.293869 -0.187569,0.414594 -0.222719,0.469403 -0.02642,0.23282 0.230301,-0.277565 0.107302,-0.213327 0.213908,-0.396227 0.236901,-0.406446 0.02299,-0.01022 0.04181,-0.04025 0.04181,-0.06672 0,-0.0587 0.40094,-0.906857 0.447152,-0.945911 0.01814,-0.01533 0.06812,-0.115663 0.111072,-0.222965 0.04295,-0.107302 0.110507,-0.228241 0.150125,-0.268753 0.03962,-0.04051 0.07203,-0.106286 0.07203,-0.146163 0,-0.03988 0.110981,-0.295193 0.246623,-0.567367 0.318454,-0.638995 0.756722,-1.567517 0.756722,-1.603204 0,-0.01527 0.100334,-0.240928 0.222965,-0.50146 0.122631,-0.260532 0.222966,-0.50031 0.222966,-0.532839 0,-0.03253 0.02309,-0.05914 0.05131,-0.05914 0.02822,0 0.06784,-0.07525 0.08804,-0.167224 0.0202,-0.09197 0.05982,-0.167224 0.08804,-0.167224 0.02822,0 0.05131,-0.03846 0.05131,-0.08547 0,-0.04701 0.06102,-0.205891 0.13561,-0.3530768 0.07458,-0.1471862 0.27682,-0.6041282 0.44941,-1.0154265 0.172592,-0.4112987 0.349078,-0.8230663 0.392193,-0.9150395 0.199824,-0.4262687 0.416321,-0.974631 0.416321,-1.0544933 0,-0.048513 0.02508,-0.088205 0.05574,-0.088205 0.03066,0 0.05574,-0.031554 0.05574,-0.07012 0,-0.038566 0.06332,-0.1890675 0.140712,-0.3344482 0.07739,-0.1453801 0.127199,-0.2643277 0.110681,-0.2643277 -0.01652,0 0.04587,-0.1503562 0.138634,-0.3341255 0.09277,-0.1837686 0.169326,-0.3463764 0.170132,-0.3613501 8.09e-4,-0.014974 0.101182,-0.2440822 0.223056,-0.50913 0.121873,-0.2650479 0.23652,-0.5414035 0.254772,-0.6141236 0.01825,-0.07272 0.05555,-0.1322184 0.08288,-0.1322184 0.02733,0 0.0497,-0.039406 0.0497,-0.087569 0,-0.085426 0.74596,-1.6431552 0.82446,-1.7216561 0.02174,-0.021742 0.04069,-0.056253 0.0421,-0.076691 0.0032,-0.046 0.432809,-0.9184523 0.471234,-0.9569355 0.05105,-0.051123 0.222966,-0.39841297 0.222966,-0.45040606 0,-0.0281732 -0.0319,-0.0512241 -0.07088,-0.0512241 -0.0913,0 -0.87672,0.77911816 -0.87672,0.86968956 0,0.037743 -0.02033,0.076985 -0.04518,0.087204 -0.05029,0.020682 -0.45649,0.6679393 -0.45649,0.7273957 0,0.020746 -0.08654,0.185385 -0.19232,0.3658642 -0.105776,0.1804792 -0.204109,0.3887629 -0.218517,0.4628527 -0.01441,0.07409 -0.194727,0.5235046 -0.400705,0.9986997 -0.205979,0.4751951 -0.381358,0.9141583 -0.389731,0.9754738 -0.0084,0.061316 -0.07988,0.2558306 -0.158896,0.4322553 -0.07902,0.1764253 -0.142317,0.326927 -0.140661,0.3344482 0.0017,0.00752 -0.0135,0.063843 -0.03368,0.1251583 -0.09908,0.3010379 -0.152904,0.4556449 -0.194039,0.5574136 -0.0567,0.1402731 -0.117752,0.3257742 -0.11925,0.3623188 -6.3e-4,0.015329 -0.02716,0.059225 -0.05897,0.097547 -0.0318,0.038322 -0.04364,0.069677 -0.0263,0.069677 0.01734,0 -0.05484,0.1895167 -0.160399,0.4211483 -0.105558,0.2316315 -0.191923,0.4518211 -0.191923,0.4893094 0,0.037489 -0.09016,0.2555808 -0.200347,0.4846488 -0.11019,0.2290685 -0.208174,0.4556566 -0.217741,0.5035295 -0.0096,0.047873 -0.07283,0.2109164 -0.140589,0.3623189 -0.207021,0.4625966 -0.264158,0.5978396 -0.387113,0.9163026 -0.0651,0.168618 -0.156548,0.39437 -0.203213,0.501672 -0.04667,0.107302 -0.104369,0.245262 -0.128228,0.306578 -0.100445,0.258125 -0.641658,1.360561 -0.659282,1.342937 -0.01057,-0.01057 0.0174,-0.10384 0.06214,-0.207273 0.173344,-0.400721 0.246782,-0.5826 0.280286,-0.694164 0.01915,-0.06375 0.159635,-0.400551 0.312198,-0.748442 0.152563,-0.347892 0.269261,-0.640657 0.259328,-0.65059 -0.0099,-0.0099 -0.159649,0.289241 -0.332704,0.664831 -0.629621,1.366501 -0.52441,1.212433 -0.827958,1.212433 -0.327573,0 -1.045971,0.356416 -1.539388,0.763729 -0.178217,0.147117 -0.483449,0.380363 -0.678294,0.518322 -0.194845,0.13796 -0.431925,0.315587 -0.526845,0.394727 -0.322833,0.269164 -0.921767,0.720101 -0.956437,0.720101 -0.019,0 -0.137109,0.08779 -0.262468,0.195094 -0.125358,0.107303 -0.251403,0.195095 -0.280099,0.195095 -0.0287,0 -0.171773,0.08779 -0.317948,0.195095 -0.146174,0.107302 -0.283508,0.195095 -0.305184,0.195095 -0.02168,0 -0.141979,0.08779 -0.267337,0.195094 -0.125359,0.107303 -0.258945,0.195095 -0.296859,0.195095 -0.03791,0 -0.07729,0.0216 -0.08751,0.048 -0.0279,0.07207 -1.238484,0.642822 -1.970506,0.929027 -0.98313,0.384383 -2.247274,0.637075 -2.59905,0.519529 -0.102873,-0.03438 -0.203799,-0.07789 -0.224282,-0.0967 -0.02048,-0.01881 0.117477,-0.202579 0.306577,-0.408377 l 0.34382,-0.37418 0.261866,0.06239 c 0.211889,0.05048 0.331736,0.04515 0.627954,-0.02795 0.46369,-0.114427 1.371782,-0.562884 1.662865,-0.821198 0.191733,-0.170148 0.21433,-0.213463 0.162188,-0.310891 -0.06797,-0.126997 -0.373955,-0.234016 -0.807877,-0.282553 -0.451724,-0.05053 -0.476892,-0.08591 -0.212324,-0.298525 0.22358,-0.179674 0.248805,-0.186019 0.799278,-0.20105 0.853995,-0.02332 1.354986,-0.149946 2.160453,-0.54606 0.680931,-0.334869 0.947093,-0.476199 1.003345,-0.532767 0.01533,-0.01542 0.131362,-0.09819 0.257852,-0.183945 0.236742,-0.160501 0.353736,-0.25889 0.959052,-0.806532 0.431917,-0.390763 1.120812,-1.096258 1.509234,-1.545598 0.380236,-0.439872 0.395378,-0.459908 0.395378,-0.523209 0,-0.02976 0.03187,-0.08726 0.07083,-0.12777 0.03895,-0.04051 0.170644,-0.199043 0.292642,-0.3522905 0.121998,-0.1532475 0.252719,-0.3113613 0.29049,-0.3513629 0.03777,-0.040002 0.162322,-0.2156215 0.276779,-0.3902648 0.114458,-0.1746432 0.22317,-0.3300747 0.241582,-0.3454036 0.01841,-0.015329 0.118576,-0.1532887 0.222586,-0.3065774 0.104011,-0.1532888 0.209767,-0.3037905 0.235014,-0.3344482 0.02525,-0.030658 0.269518,-0.3943701 0.542827,-0.8082497 0.273307,-0.4138796 0.528102,-0.7879047 0.56621,-0.8311672 0.03811,-0.043262 0.110695,-0.159878 0.161305,-0.2591461 0.08843,-0.1734571 0.462288,-0.7172642 0.572505,-0.8327636 0.102382,-0.1072874 -0.01578,0.4072307 -0.290428,1.2645836 -0.15039,0.4694738 -0.366932,1.1545914 -0.481202,1.5224844 -0.11427,0.3678929 -0.225331,0.6939799 -0.246802,0.7246376 -0.02147,0.030658 -0.07112,0.2062431 -0.110342,0.3901896 -0.03922,0.1839464 -0.118017,0.4583712 -0.175111,0.6098328 -0.164722,0.436985 -0.08506,0.355148 0.117658,-0.120868 0.101472,-0.2382731 0.239562,-0.5586415 0.306869,-0.7119303 0.217143,-0.4945357 0.528107,-1.2940892 0.528107,-1.3578723 0,-0.034099 0.14799,-0.4203217 0.328868,-0.8582709 0.180877,-0.4379499 0.357509,-0.9086121 0.392516,-1.045917 0.03501,-0.1373049 0.08552,-0.2998127 0.112254,-0.3611282 0.02673,-0.061316 0.148112,-0.412486 0.26973,-0.780379 0.121619,-0.367893 0.263791,-0.7943144 0.315939,-0.9476031 0.119432,-0.3510677 0.796379,-1.6905854 0.929603,-1.8394649 0.05487,-0.061315 0.214739,-0.2670415 0.355268,-0.457169 0.355023,-0.4803225 1.266824,-1.142938 1.432151,-1.04075986 0.07358,0.0454726 0.05008,0.16073016 -0.05607,0.27504359 -0.05519,0.0594319 -0.148387,0.18957977 -0.207112,0.28921747 -0.05873,0.099638 -0.126449,0.1811594 -0.150497,0.1811594 -0.02405,0 -0.04372,0.027717 -0.04372,0.061593 0,0.033876 -0.07832,0.1776456 -0.174052,0.3194877 -0.09573,0.1418421 -0.177954,0.2834397 -0.182726,0.3146613 -0.0048,0.031222 -0.02545,0.083563 -0.04594,0.116313 -0.0205,0.032751 -0.144948,0.2710448 -0.276558,0.5295429 -0.131609,0.2584981 -0.258365,0.4783577 -0.281677,0.488577 -0.02331,0.010219 -0.04239,0.041507 -0.04239,0.069528 0,0.028021 -0.07657,0.2203289 -0.170157,0.4273505 -0.09359,0.2070216 -0.203126,0.4516537 -0.243421,0.543627 -0.0403,0.091973 -0.130105,0.2926421 -0.199577,0.4459308 -0.06947,0.1532888 -0.156861,0.3539577 -0.1942,0.4459309 -0.03734,0.091973 -0.131797,0.305184 -0.209907,0.4738016 -0.371491,0.801942 -0.487754,1.0617976 -0.487754,1.0901633 0,0.016929 -0.05281,0.1485513 -0.117366,0.2924933 -0.134918,0.3008529 -0.197832,0.4459599 -0.427651,0.9863512 -0.09127,0.2146042 -0.287305,0.6639894 -0.435638,0.9986338 -0.148333,0.3346443 -0.274515,0.6356477 -0.280405,0.6688963 -0.01379,0.077828 -0.481214,1.1236235 -0.656275,1.4683145 -0.07385,0.145408 -0.171723,0.352171 -0.217495,0.459473 -0.326935,0.76642 -1.07324,2.372403 -1.109518,2.387588 -0.02442,0.01022 -0.04439,0.05134 -0.04439,0.09138 0,0.04004 -0.101893,0.282515 -0.226428,0.538833 -0.124535,0.256318 -0.281308,0.578909 -0.348383,0.716869 -0.06708,0.13796 -0.134498,0.263378 -0.149826,0.278707 -0.03753,0.03753 -0.991918,1.889334 -1.350224,2.619844 -0.157891,0.321906 -0.483064,0.94296 -0.722606,1.38012 -0.239542,0.43716 -0.435532,0.817595 -0.435532,0.845411 0,0.02782 -0.02085,0.05894 -0.04633,0.06916 -0.02548,0.01022 -0.20206,0.285981 -0.392395,0.612805 -0.190334,0.326823 -0.382696,0.624627 -0.42747,0.661786 -0.04477,0.03716 -0.08141,0.114657 -0.08141,0.172219 0,0.05756 -0.02263,0.104657 -0.05029,0.104657 -0.02766,0 -0.07803,0.06898 -0.111945,0.153289 -0.06409,0.159332 -0.44398,0.801276 -0.503052,0.850056 -0.01856,0.01533 -0.06487,0.09058 -0.102903,0.167224 -0.08494,0.171176 -0.528122,0.828084 -0.648696,0.961538 -0.04847,0.05365 -0.08813,0.114081 -0.08813,0.134289 0,0.02021 -0.100335,0.169633 -0.222966,0.332056 -0.122631,0.162424 -0.222965,0.308479 -0.222965,0.324567 0,0.04076 -0.953136,1.435552 -1.044359,1.52829 -0.04091,0.04159 -0.172063,0.217171 -0.291459,0.390189 -0.119396,0.173018 -0.27693,0.382071 -0.350076,0.464562 -0.07315,0.08249 -0.181518,0.218 -0.240829,0.301132 -0.05931,0.08313 -0.146353,0.192114 -0.193428,0.242185 -0.04708,0.05007 -0.159952,0.190481 -0.250836,0.312023 -0.140878,0.1884 -0.390716,0.480006 -0.613859,0.716484 -0.03213,0.03405 -0.230388,0.262585 -0.440567,0.507847 -0.210179,0.245262 -0.434724,0.502118 -0.49899,0.570791 -0.06426,0.06867 -0.417849,0.448631 -0.785742,0.84435 -0.367893,0.39572 -0.69398,0.723502 -0.724638,0.728404 -0.03066,0.0049 -0.192028,0.170514 -0.358601,0.368024 -0.166573,0.197511 -0.317075,0.356849 -0.334449,0.354083 -0.01737,-0.0028 -0.113109,-0.02857 -0.212747,-0.05733 z M 26.297532,13.047077 c 0.05165,-0.09 0.101589,-0.155945 0.110977,-0.146557 0.03017,0.03017 -0.11488,0.310182 -0.160683,0.310182 -0.02431,0 -0.0019,-0.07363 0.04971,-0.163625 z"
         style="fill:#5ea7a1;stroke-width:0.0557414" />
      <path
         id="path2728"
         d="m 28.513982,40.008361 c -0.07462,-0.160953 -0.225759,-0.443144 -0.335863,-0.62709 -0.110105,-0.183947 -0.213827,-0.374988 -0.230494,-0.424536 -0.03944,-0.117256 -0.285625,-0.187229 -1.136031,-0.322899 -0.383222,-0.06114 -0.922519,-0.147949 -1.198439,-0.192913 -1.288753,-0.210019 -3.347663,-0.24773 -4.459309,-0.08168 -0.680917,0.101713 -1.853127,0.537461 -1.990432,0.739908 -0.05973,0.08806 -0.110699,0.0095 -0.423993,-0.653533 l -0.284079,-0.601201 0.337044,-0.261737 c 0.192716,-0.149658 0.543728,-0.343378 0.819709,-0.45239 0.265466,-0.104858 0.733501,-0.290838 1.040079,-0.413289 0.306577,-0.12245 0.758082,-0.290667 1.003344,-0.373816 0.910906,-0.308811 2.683804,-0.966 2.926422,-1.084783 0.386455,-0.189205 1.670197,-0.91738 1.950947,-1.106633 0.13796,-0.093 0.351171,-0.261716 0.473802,-0.374927 0.122631,-0.113212 0.344672,-0.315037 0.493424,-0.4485 0.332294,-0.298141 1.070604,-1.206181 1.287628,-1.583641 0.08814,-0.153289 0.176688,-0.291249 0.196785,-0.306578 0.03539,-0.02699 0.212924,-0.384242 0.33241,-0.668896 0.03217,-0.07665 0.08303,-0.176979 0.113018,-0.222966 0.04519,-0.0693 0.220355,-0.458557 0.250836,-0.557413 0.0047,-0.01533 0.06488,-0.211032 0.133681,-0.434896 0.0688,-0.223864 0.171228,-0.514667 0.227622,-0.646228 0.05639,-0.131562 0.116496,-0.324654 0.133561,-0.429095 0.04498,-0.275274 0.06318,-0.350366 0.100086,-0.412858 0.01811,-0.03066 0.05308,-0.156076 0.07772,-0.278707 0.02464,-0.122631 0.04807,-0.235507 0.05206,-0.250836 0.104752,-0.402658 0.252475,-1.103672 0.281909,-1.337793 0.0212,-0.168617 0.06389,-0.337932 0.09487,-0.376254 0.03098,-0.03832 0.04395,-0.06968 0.02882,-0.06968 -0.01512,0 -0.0041,-0.119147 0.0245,-0.264771 0.0286,-0.145624 0.0632,-0.352564 0.07689,-0.459866 0.01369,-0.107302 0.03674,-0.257804 0.05121,-0.334449 0.01448,-0.07664 0.04113,-0.264771 0.05924,-0.41806 0.01811,-0.153288 0.04398,-0.341416 0.0575,-0.41806 0.04691,-0.265896 0.07657,-0.475244 0.106646,-0.752508 0.04597,-0.423853 0.08136,-0.736617 0.138771,-1.22631 0.158909,-1.355531 0.215917,-2.068588 0.307492,-3.846154 0.01264,-0.245262 0.04907,-0.78456 0.08097,-1.198439 0.09093,-1.179898 0.123959,-1.622662 0.143458,-1.923077 0.0099,-0.153289 0.03118,-0.44175 0.04717,-0.641026 0.016,-0.199275 0.04471,-0.663322 0.06381,-1.031215 0.03044,-0.5863 0.10601,-1.611029 0.162376,-2.201784 0.01024,-0.107302 0.03477,-0.383222 0.0545,-0.613155 0.01974,-0.229933 0.04748,-0.5058525 0.06165,-0.6131546 0.01417,-0.1073022 0.0413,-0.4208473 0.06029,-0.696767 0.01899,-0.2759198 0.04235,-0.5769231 0.05191,-0.6688964 0.0096,-0.091973 0.03251,-0.3302675 0.051,-0.5295429 0.0185,-0.1992753 0.04828,-0.4250278 0.0662,-0.5016722 0.01791,-0.076644 0.04146,-0.2246795 0.05234,-0.3289671 0.02093,-0.2006974 0.185074,-1.3342955 0.217868,-1.504577 0.01064,-0.055263 0.03509,-0.2359752 0.05433,-0.4015829 0.07265,-0.6254379 0.297112,-1.5620737 0.519653,-2.1684405 0.01688,-0.045987 0.03374,-0.096154 0.03748,-0.1114827 0.04907,-0.2014239 0.375446,-0.5574136 0.511047,-0.5574136 0.286781,0 0.641221,0.3997784 1.013106,1.1426979 0.288091,0.5755206 0.4817,1.0381842 0.594812,1.4214047 0.04977,0.1686176 0.150891,0.4947046 0.224715,0.7246377 0.171915,0.5354559 0.425555,1.444258 0.443375,1.5886287 0.01471,0.1191879 0.255633,1.1235257 0.399748,1.6664387 0.04798,0.1807553 0.09836,0.393966 0.111948,0.4738016 0.01359,0.079836 0.04959,0.2229097 0.08001,0.317942 0.03041,0.095033 0.07894,0.3082436 0.107841,0.4738016 0.04484,0.25687 0.158618,0.787765 0.255651,1.192877 0.07213,0.301155 0.149884,0.680562 0.159921,0.780379 0.0062,0.06131 0.03981,0.236901 0.07477,0.390189 0.03496,0.153289 0.14099,0.692587 0.235627,1.19844 0.17458,0.933163 0.326766,1.685178 0.473779,2.341137 0.04466,0.199275 0.09302,0.450111 0.107463,0.557413 0.01444,0.107302 0.06605,0.37068 0.11469,0.585285 0.04863,0.214604 0.134973,0.607294 0.191861,0.872646 0.05689,0.265351 0.117938,0.528729 0.135666,0.585284 0.01773,0.05655 0.0442,0.19757 0.05882,0.313366 0.01462,0.115796 0.03854,0.229876 0.05314,0.253513 0.01461,0.02364 0.06579,0.267523 0.113745,0.54197 0.04795,0.274448 0.100072,0.549163 0.115823,0.610478 0.01575,0.06132 0.06626,0.29961 0.11224,0.529543 0.04598,0.229933 0.119058,0.543478 0.162394,0.696767 0.101458,0.358878 0.321058,1.301186 0.340544,1.461283 0.0083,0.06792 0.05334,0.243505 0.100161,0.39019 0.04682,0.146684 0.113802,0.4172 0.148845,0.601147 0.03504,0.183946 0.112722,0.502907 0.17262,0.708802 0.108926,0.374422 0.316853,1.15568 0.356608,1.339902 0.0116,0.05377 0.03258,0.116476 0.04661,0.139354 0.01403,0.02288 0.04018,0.13425 0.0581,0.247493 0.03582,0.226394 0.278566,0.976798 0.333862,1.032094 0.01912,0.01912 0.03477,0.10436 0.03477,0.189414 0,0.08506 0.0229,0.168798 0.05089,0.186097 0.02799,0.0173 0.06858,0.137926 0.0902,0.268061 0.02162,0.130135 0.06958,0.299318 0.106576,0.375962 0.03699,0.07664 0.07204,0.220669 0.07787,0.320055 0.0058,0.09939 0.04987,0.375305 0.09786,0.613155 0.04799,0.237849 0.09556,0.512329 0.105715,0.609955 0.01015,0.09763 0.03408,0.226702 0.05316,0.286835 0.01909,0.06013 0.04404,0.180927 0.05545,0.26843 0.01141,0.0875 0.03939,0.2322 0.06217,0.321549 0.03524,0.138196 0.02738,0.157067 -0.0526,0.126375 -0.295623,-0.113442 -0.73714,-0.209831 -1.194519,-0.260782 -0.454743,-0.05066 -0.596386,-0.04311 -1.138664,0.06064 -0.985935,0.188629 -1.699809,0.536798 -2.940651,1.434207 -0.705306,0.510096 -2.394456,2.150426 -3.196015,3.103644 -0.30936,0.367893 -0.751513,0.883649 -0.982561,1.146124 -0.231048,0.262475 -0.733632,0.83791 -1.116854,1.278744 -0.892218,1.026351 -2.175539,2.452501 -2.206883,2.452501 -0.0133,0 -0.08523,-0.131689 -0.159848,-0.292642 z m 7.029819,-17.948718 c 0.115531,-0.129685 0.242152,-0.496388 0.242152,-0.701286 0,-0.06435 0.03608,-0.224485 0.08019,-0.355851 0.0441,-0.131367 0.09693,-0.401893 0.117383,-0.601168 0.02046,-0.199276 0.04682,-0.450112 0.05859,-0.557414 0.1167,-1.064393 0.114801,-4.84911 -0.0033,-6.605351 -0.07623,-1.133413 -0.200916,-2.713027 -0.235401,-2.982163 -0.02161,-0.168617 -0.0348,-0.3240889 -0.02933,-0.345492 0.0055,-0.021403 -0.02596,-0.294869 -0.06986,-0.6077023 -0.0439,-0.3128333 -0.0768,-0.5837832 -0.0731,-0.6021109 0.01041,-0.051637 -0.06825,-0.5621745 -0.130372,-0.8461957 C 35.469997,7.7144069 35.435638,7.513738 35.424376,7.4089782 35.413115,7.3042185 35.338086,6.8798774 35.257645,6.4659978 35.177206,6.0521182 35.101417,5.6403038 35.089228,5.5508549 35.033691,5.143299 34.569108,3.8174987 34.342126,3.4188189 34.198793,3.1670635 33.905275,2.9711404 33.756802,3.028115 33.705785,3.047692 33.594104,3.2209468 33.508621,3.4131257 33.302062,3.8775073 33.235035,4.1401086 33.134881,4.877369 33.118222,5 33.093276,5.1755853 33.079445,5.2675585 c -0.06889,0.4581277 -0.09422,0.7583746 -0.176307,2.090301 -0.0643,1.0432653 -0.0425,4.3343265 0.03397,5.1282055 0.08704,0.903638 0.198608,1.871558 0.311604,2.703456 0.04581,0.337235 0.09877,0.763656 0.117689,0.947603 0.06366,0.618854 0.49342,2.892577 0.574544,3.039733 0.02591,0.04699 0.06475,0.172412 0.08631,0.278707 0.02157,0.106296 0.07207,0.2936 0.112236,0.416231 0.04016,0.122631 0.115304,0.373467 0.166978,0.557413 0.05167,0.183947 0.138941,0.434783 0.193928,0.557414 0.05499,0.122631 0.134309,0.319338 0.176272,0.437128 0.09183,0.25776 0.52905,0.761311 0.661029,0.761311 0.0519,0 0.144643,-0.05644 0.206094,-0.125418 z"
         style="fill:#e3670e;stroke-width:0.0557414" />
      <path
         id="path2726"
         d="m 14.336497,32.240459 -0.184126,-0.08044 0.112395,-0.142888 c 0.196971,-0.250408 0.504954,-0.578811 0.548355,-0.584713 0.02307,-0.0031 0.342955,-0.329476 0.710848,-0.725196 0.367893,-0.395719 0.721477,-0.775677 0.785742,-0.84435 0.06427,-0.06867 0.288811,-0.325529 0.49899,-0.570791 0.210179,-0.245262 0.408434,-0.473793 0.440567,-0.507847 0.223143,-0.236478 0.472981,-0.528084 0.613859,-0.716484 0.09088,-0.121542 0.20376,-0.261953 0.250836,-0.312023 0.04708,-0.05007 0.134118,-0.159054 0.193428,-0.242185 0.05931,-0.08313 0.167684,-0.218641 0.240829,-0.301132 0.07315,-0.08249 0.23068,-0.291544 0.350076,-0.464562 0.119396,-0.173018 0.250553,-0.348603 0.291459,-0.390189 0.09122,-0.09274 1.044359,-1.487535 1.044359,-1.52829 0,-0.01609 0.100334,-0.162143 0.222965,-0.324567 0.122631,-0.162423 0.222966,-0.311849 0.222966,-0.332056 0,-0.02021 0.03966,-0.08064 0.08813,-0.134289 0.120574,-0.133454 0.563753,-0.790362 0.648696,-0.961538 0.03803,-0.07664 0.08434,-0.151895 0.102903,-0.167224 0.05907,-0.04878 0.438966,-0.690724 0.503052,-0.850056 0.03391,-0.08431 0.08429,-0.153289 0.111945,-0.153289 0.02766,0 0.05029,-0.04709 0.05029,-0.104657 0,-0.05756 0.03663,-0.13506 0.08141,-0.172219 0.04477,-0.03716 0.237136,-0.334963 0.42747,-0.661786 0.190335,-0.326824 0.366913,-0.602586 0.392395,-0.612805 0.02548,-0.01022 0.04633,-0.04134 0.04633,-0.06916 0,-0.02782 0.19599,-0.408251 0.435532,-0.845411 0.239542,-0.43716 0.564715,-1.058214 0.722606,-1.38012 0.358306,-0.73051 1.312695,-2.582316 1.350224,-2.619844 0.01533,-0.01533 0.08275,-0.140747 0.149826,-0.278707 0.06707,-0.13796 0.223848,-0.460551 0.348383,-0.716869 0.124535,-0.256318 0.226428,-0.498793 0.226428,-0.538833 0,-0.04004 0.01998,-0.08116 0.04439,-0.09138 0.03628,-0.01519 0.782583,-1.621168 1.109518,-2.387588 0.04577,-0.107302 0.143645,-0.314065 0.217495,-0.459473 0.175061,-0.344691 0.642489,-1.3904871 0.656275,-1.4683148 0.0059,-0.033249 0.132072,-0.334252 0.280405,-0.6688963 0.148333,-0.3346444 0.34437,-0.7840296 0.435638,-0.9986338 0.229819,-0.5403913 0.292733,-0.6854983 0.427651,-0.9863512 0.06455,-0.143942 0.117366,-0.2755641 0.117366,-0.2924933 0,-0.028366 0.116263,-0.2882213 0.487754,-1.0901633 0.07811,-0.1686176 0.172568,-0.3818283 0.209907,-0.4738016 0.03734,-0.091973 0.124729,-0.2926421 0.1942,-0.4459309 0.06947,-0.1532887 0.159281,-0.3539576 0.199577,-0.4459308 0.0403,-0.091973 0.149835,-0.3366054 0.243421,-0.543627 0.09359,-0.2070216 0.170157,-0.3993293 0.170157,-0.4273505 0,-0.028021 0.01907,-0.059309 0.04239,-0.069528 0.02331,-0.010219 0.150068,-0.2300789 0.281677,-0.488577 0.13161,-0.2584981 0.256062,-0.4967924 0.276558,-0.5295429 0.0205,-0.03275 0.04117,-0.085091 0.04594,-0.116313 0.0048,-0.031222 0.087,-0.1728192 0.182726,-0.3146613 0.09573,-0.1418421 0.174052,-0.2856116 0.174052,-0.3194877 0,-0.033876 0.01967,-0.061593 0.04372,-0.061593 0.02405,0 0.09177,-0.081522 0.150497,-0.1811594 0.05872,-0.0996377 0.151926,-0.22978556 0.207112,-0.28921745 0.106148,-0.11431343 0.129643,-0.22957102 0.05607,-0.27504359 C 32.454834,0.37870302 31.543033,1.0413185 31.18801,1.521641 c -0.140529,0.1901275 -0.303441,0.3979909 -0.362026,0.4619188 -0.05859,0.063928 -0.136973,0.183075 -0.174196,0.2647714 -0.03722,0.081696 -0.09022,0.148539 -0.117763,0.148539 -0.02755,0 -0.03458,0.025084 -0.01563,0.055741 0.01895,0.030658 0.0037,0.055741 -0.03387,0.055741 -0.03758,0 -0.05187,0.016449 -0.03177,0.036553 0.0201,0.020104 -0.07454,0.2521274 -0.210325,0.5156075 -0.135783,0.2634801 -0.289004,0.6044727 -0.34049,0.7577615 -0.05149,0.1532887 -0.193118,0.5797101 -0.314737,0.9476031 -0.121618,0.367893 -0.242996,0.7190635 -0.26973,0.780379 -0.02673,0.061316 -0.07725,0.2238233 -0.112254,0.3611282 -0.03501,0.1373049 -0.211639,0.6079671 -0.392516,1.045917 -0.180878,0.4379492 -0.328868,0.8241717 -0.328868,0.8582709 0,0.063783 -0.310964,0.8633366 -0.528107,1.3578723 -0.06731,0.1532888 -0.205397,0.4736572 -0.306869,0.7119303 -0.202717,0.476016 -0.28238,0.557853 -0.117658,0.120868 0.05709,-0.1514616 0.135894,-0.4258864 0.175111,-0.6098328 0.03922,-0.1839465 0.08887,-0.3595318 0.110342,-0.3901896 0.02147,-0.030658 0.132532,-0.3567447 0.246802,-0.7246376 0.11427,-0.367893 0.330812,-1.0530106 0.481202,-1.5224844 0.274644,-0.8573529 0.39281,-1.371871 0.290428,-1.2645836 -0.110217,0.1154994 -0.484072,0.6593065 -0.572505,0.8327636 -0.05061,0.099268 -0.123197,0.2158841 -0.161305,0.2591461 -0.03811,0.043262 -0.292903,0.4172876 -0.56621,0.8311672 -0.273309,0.4138796 -0.517581,0.777592 -0.542827,0.8082497 -0.02525,0.030658 -0.131003,0.1811594 -0.235014,0.3344482 -0.10401,0.1532887 -0.204174,0.2912486 -0.222586,0.3065774 -0.01841,0.015329 -0.127124,0.1707604 -0.241582,0.3454036 -0.114457,0.1746433 -0.239008,0.3502625 -0.276779,0.3902648 -0.03777,0.040002 -0.168492,0.1981154 -0.29049,0.3513629 -0.121998,0.1532475 -0.253687,0.3117785 -0.292642,0.3522905 -0.03896,0.04051 -0.07083,0.09801 -0.07083,0.12777 0,0.0633 -0.01514,0.08334 -0.395378,0.523209 -0.388422,0.44934 -1.077317,1.154835 -1.509234,1.545598 -0.605316,0.547642 -0.72231,0.646031 -0.959052,0.806532 -0.12649,0.08575 -0.242523,0.16853 -0.257852,0.183945 -0.05625,0.05657 -0.322414,0.197898 -1.003345,0.532767 -0.744401,0.366084 -1.210342,0.492391 -2.034559,0.551531 -0.583196,0.04185 -0.682917,-0.0206 -0.341338,-0.213762 0.772699,-0.436952 0.77773,-0.438845 1.359038,-0.511456 0.456781,-0.05706 1.614829,-0.50604 1.676465,-0.64998 0.01022,-0.02387 0.04784,-0.04355 0.08361,-0.04374 0.140693,-7.58e-4 1.206255,-0.865188 1.966867,-1.595602 0.440892,-0.423388 0.801621,-0.790957 0.801621,-0.816821 0,-0.04797 0.09766,-0.168349 0.891551,-1.0989317 0.248468,-0.2912486 0.5932,-0.7427536 0.766072,-1.0033445 0.172872,-0.2605909 0.490063,-0.7120959 0.70487,-1.0033445 0.214806,-0.2912486 0.494803,-0.7051282 0.622217,-0.9197324 0.127414,-0.2146043 0.394612,-0.6410257 0.593774,-0.9476031 0.199162,-0.3065775 0.519186,-0.8270625 0.711163,-1.1566333 0.191978,-0.3295708 0.371397,-0.5992196 0.398709,-0.5992196 0.02731,0 0.04339,-0.019963 0.03572,-0.044363 -0.03453,-0.1099154 1.17835,-1.9309058 1.671321,-2.5092909 0.623383,-0.73139146 1.393837,-1.1810176 2.023726,-1.1810176 0.349459,0 0.407449,0.0738692 0.109383,0.13933526 -0.158102,0.034725 -0.460551,0.30331708 -0.795301,0.70627044 -0.237076,0.2853801 -0.472879,0.6782035 -0.864274,1.4397901 -0.196946,0.3832218 -0.383788,0.7281215 -0.415206,0.7664437 -0.03142,0.038322 -0.04093,0.069677 -0.02114,0.069677 0.01979,0 -0.0013,0.056849 -0.04679,0.1263305 -0.04553,0.069482 -0.118622,0.2262543 -0.162436,0.3483835 -0.04381,0.1221291 -0.157645,0.3891536 -0.252958,0.5933877 -0.09531,0.204234 -0.173297,0.398632 -0.173297,0.4319955 0,0.033363 -0.02508,0.060661 -0.05574,0.060661 -0.03066,0 -0.05574,0.034809 -0.05574,0.077354 0,0.07024 -0.0998,0.3057515 -0.47508,1.1210855 -0.204305,0.4438762 -0.538231,1.2755546 -0.54273,1.351728 -0.0023,0.038322 -0.01889,0.069677 -0.03696,0.069677 -0.01806,0 -0.06619,0.081522 -0.106947,0.1811594 -0.04076,0.099638 -0.134673,0.3222558 -0.208701,0.4947073 -0.07403,0.172451 -0.134599,0.3294972 -0.134599,0.3489906 0,0.019494 -0.04827,0.1417753 -0.107255,0.2717369 -0.231446,0.5099002 -0.400279,0.8948043 -0.538222,1.2270352 -0.13974,0.336557 -0.207978,0.488389 -0.574549,1.278394 -0.09543,0.205661 -0.173508,0.391041 -0.173508,0.411955 0,0.04987 -0.218092,0.531345 -0.754972,1.666735 -0.173962,0.367893 -0.391129,0.83194 -0.482594,1.031216 -0.387403,0.844035 -1.591734,3.345711 -1.663734,3.455964 -0.03003,0.04599 -0.08024,0.148188 -0.111581,0.227116 -0.05992,0.150925 -0.414372,0.833586 -0.750329,1.445125 -0.109475,0.199275 -0.342237,0.625696 -0.517249,0.947603 -0.175012,0.321906 -0.392507,0.69816 -0.483323,0.83612 -0.164865,0.250448 -0.200345,0.309511 -0.490926,0.817229 -0.395896,0.691731 -0.730159,1.237315 -1.126297,1.838338 -0.184706,0.280239 -0.498873,0.767445 -0.698148,1.082681 -0.199275,0.315236 -0.389712,0.600681 -0.423192,0.634324 -0.03348,0.03364 -0.09331,0.121778 -0.132958,0.195859 -0.03965,0.07408 -0.09357,0.161356 -0.119828,0.193944 -0.114268,0.141815 -0.482429,0.640661 -0.660167,0.894506 -0.106397,0.151954 -0.231815,0.31678 -0.278707,0.36628 -0.04689,0.0495 -0.122885,0.148255 -0.168871,0.219455 -0.04599,0.0712 -0.183947,0.247309 -0.306578,0.391353 -0.122631,0.144044 -0.273133,0.333005 -0.334448,0.419913 -0.06132,0.08691 -0.199275,0.263007 -0.306578,0.391332 -0.107302,0.128324 -0.257803,0.313574 -0.334448,0.411665 -0.462748,0.592241 -0.860927,1.035233 -1.580614,1.758506 -0.396575,0.398551 -0.818511,0.856326 -0.937637,1.01728 -0.233386,0.315333 -0.258182,0.324719 -0.536556,0.203112 z m -2.269026,-0.138437 c 0.152996,-0.09851 0.355994,-0.211626 0.451108,-0.251367 0.09511,-0.03974 0.281737,-0.16316 0.41472,-0.274263 0.132982,-0.111104 0.343864,-0.25375 0.468625,-0.316991 0.124761,-0.06324 0.304606,-0.180588 0.399655,-0.260771 0.09505,-0.08018 0.282155,-0.23358 0.41579,-0.340882 0.133635,-0.107302 0.356872,-0.291679 0.49608,-0.409727 0.139208,-0.118048 0.315815,-0.266251 0.39246,-0.329338 0.213592,-0.175813 0.601865,-0.525198 1.016624,-0.914803 0.20658,-0.194052 0.400978,-0.352821 0.431996,-0.352821 0.03102,0 0.05717,-0.03135 0.05811,-0.06968 9.42e-4,-0.03832 0.157717,-0.237276 0.348384,-0.442121 0.190668,-0.204844 0.409377,-0.452976 0.486022,-0.551404 0.07664,-0.09843 0.239688,-0.280168 0.362319,-0.403864 0.122631,-0.123697 0.18534,-0.203368 0.139353,-0.177045 -0.04599,0.02632 -0.003,-0.03579 0.09556,-0.138034 0.09854,-0.102241 0.166042,-0.207131 0.149999,-0.233089 -0.01604,-0.02596 -0.0042,-0.0472 0.02624,-0.0472 0.06766,0 0.979846,-1.154319 1.071981,-1.356533 0.03633,-0.07974 0.08748,-0.131753 0.113651,-0.115576 0.02617,0.01618 0.04759,0.0038 0.04759,-0.02745 0,-0.03127 0.05644,-0.111693 0.125418,-0.178711 0.06898,-0.06702 0.09066,-0.102041 0.04819,-0.07783 -0.04248,0.02421 -0.01895,-0.03481 0.05229,-0.131156 0.07123,-0.09635 0.151363,-0.175181 0.178065,-0.175181 0.0267,0 0.03294,-0.02526 0.01385,-0.05613 -0.01908,-0.03088 0.0045,-0.07118 0.05245,-0.08958 0.04793,-0.01839 0.08714,-0.06917 0.08714,-0.112839 0,-0.04367 0.03569,-0.09309 0.0793,-0.109829 0.04362,-0.01674 0.0935,-0.06742 0.110845,-0.112628 0.01735,-0.04521 0.0089,-0.0682 -0.0188,-0.05108 -0.02769,0.01711 -0.05875,0.01214 -0.06904,-0.01104 -0.01028,-0.02318 -0.109092,-0.104862 -0.219576,-0.181506 -0.110484,-0.07664 -0.28607,-0.206281 -0.39019,-0.288081 -0.10412,-0.0818 -0.465228,-0.362118 -0.802464,-0.622928 -0.646361,-0.499881 -1.08004,-0.843821 -1.243481,-0.986177 -0.05405,-0.04708 -0.197714,-0.159001 -0.319256,-0.248724 -0.121543,-0.08972 -0.263765,-0.205731 -0.31605,-0.257796 -0.05228,-0.05206 -0.278038,-0.234069 -0.501673,-0.404455 -0.223634,-0.170386 -0.4944,-0.387961 -0.601702,-0.483501 -0.255979,-0.22792 -0.710949,-0.624777 -0.915094,-0.79821 -0.08942,-0.07597 -0.208186,-0.258259 -0.263922,-0.405089 L 14.438701,19.03963 14.86616,18.480234 c 0.235103,-0.307667 0.553462,-0.709896 0.707464,-0.893843 0.154004,-0.183946 0.283439,-0.340987 0.287635,-0.348979 0.0042,-0.008 0.114126,0.02304 0.24429,0.06897 0.210791,0.07437 0.295525,0.07412 0.775139,-0.0023 0.833369,-0.132781 1.179094,-0.224318 1.875292,-0.496516 0.732022,-0.286205 1.94261,-0.856956 1.970506,-0.929027 0.01022,-0.0264 0.0496,-0.048 0.08751,-0.048 0.03791,0 0.1715,-0.08779 0.296859,-0.195095 0.125358,-0.107302 0.245659,-0.195094 0.267337,-0.195094 0.02168,0 0.15901,-0.08779 0.305184,-0.195095 0.146175,-0.107302 0.289251,-0.195095 0.317948,-0.195095 0.0287,0 0.154741,-0.08779 0.280099,-0.195095 0.125359,-0.107302 0.243469,-0.195094 0.262468,-0.195094 0.03467,0 0.633604,-0.450937 0.956437,-0.720101 0.09492,-0.07914 0.332,-0.256767 0.526845,-0.394727 0.194845,-0.137959 0.500077,-0.371205 0.678294,-0.518322 0.493417,-0.407313 1.211815,-0.763729 1.539388,-0.763729 0.303548,0 0.198337,0.154068 0.827958,-1.212433 0.173055,-0.37559 0.322772,-0.674764 0.332704,-0.664831 0.0099,0.0099 -0.106765,0.302698 -0.259328,0.65059 -0.152563,0.347891 -0.293052,0.68469 -0.312198,0.748442 -0.01915,0.06375 -0.06648,0.191164 -0.105193,0.283137 -0.03871,0.09197 -0.152558,0.362481 -0.252994,0.601128 -0.100437,0.238647 -0.222747,0.457366 -0.271801,0.486042 -0.05152,0.03012 -0.0605,0.05285 -0.02126,0.05383 0.03736,9.31e-4 0.05354,0.03918 0.03597,0.08499 -0.01758,0.04581 -0.05442,0.06941 -0.08186,0.05245 -0.02745,-0.01696 -0.0499,0.02228 -0.0499,0.08719 0,0.06492 -0.112876,0.338208 -0.250836,0.60731 -0.13796,0.269102 -0.250836,0.51847 -0.250836,0.554152 0,0.03568 -0.02508,0.06488 -0.05574,0.06488 -0.03066,0 -0.05574,0.03505 -0.05574,0.07789 0,0.04284 -0.07158,0.224696 -0.159067,0.404124 -0.08749,0.179428 -0.193944,0.407755 -0.236572,0.507393 -0.04263,0.09964 -0.09647,0.181159 -0.119641,0.181159 -0.02317,0 -0.04213,0.03881 -0.04213,0.08624 0,0.109722 -0.459731,1.025763 -0.515608,1.027377 -0.02299,6.63e-4 -0.04181,-0.03642 -0.04181,-0.0824 0,-0.0579 -0.05818,-0.08361 -0.189148,-0.08361 -0.305619,0 -1.405825,0.30012 -2.09695,0.572017 -0.352178,0.138551 -0.922469,0.341541 -1.267314,0.451088 -0.344845,0.109547 -0.68166,0.228434 -0.748477,0.264194 -0.248775,0.13314 -1.766643,0.47336 -2.470686,0.553787 -0.679393,0.07761 -2.273324,0.161946 -2.335814,0.123586 -0.196069,-0.120356 1.111773,1.66246 1.646011,2.243801 0.498255,0.542183 1.175639,1.166136 1.397457,1.287226 0.05197,0.02837 0.22756,0.171413 0.39019,0.317868 0.162629,0.146455 0.496359,0.42211 0.741621,0.612567 0.245262,0.190456 0.454292,0.365132 0.464511,0.388168 0.01022,0.02304 0.04497,0.04189 0.07722,0.04189 0.03225,0 0.116951,0.06292 0.188219,0.139817 l 0.129578,0.139818 0.318035,-0.488201 c 0.707022,-1.08532 0.905754,-1.395466 1.109198,-1.731045 0.11703,-0.193039 0.237455,-0.366229 0.26761,-0.384867 0.03016,-0.01864 0.04167,-0.0112 0.02559,0.01653 -0.01608,0.02773 -0.200348,0.351422 -0.409486,0.719315 -0.209137,0.367893 -0.395787,0.681438 -0.414776,0.696767 -0.03427,0.02767 -0.395769,0.61414 -0.556846,0.903402 -0.04621,0.08299 -0.140464,0.214872 -0.209444,0.293067 -0.06898,0.07819 -0.125418,0.164974 -0.125418,0.192844 0,0.02787 -0.01893,0.05903 -0.04206,0.06925 -0.02313,0.01022 -0.153644,0.194165 -0.29002,0.408769 -0.136376,0.214605 -0.28078,0.427815 -0.320899,0.473802 -0.08568,0.09821 -0.57604,0.758415 -0.65694,0.884478 -0.03066,0.04777 -0.165167,0.205527 -0.298909,0.350565 -0.133742,0.145037 -0.389211,0.462675 -0.567709,0.705861 -0.178498,0.243186 -0.384905,0.489639 -0.458682,0.547672 -0.07378,0.05803 -0.165097,0.163356 -0.202931,0.23405 -0.03783,0.0707 -0.198591,0.262167 -0.357236,0.425496 -0.860604,0.886006 -1.46566,1.492354 -1.521825,1.525073 -0.03489,0.02032 -0.188436,0.149826 -0.341222,0.287786 -0.42102,0.380165 -0.65657,0.569091 -1.296079,1.03954 -0.321906,0.236807 -0.685619,0.514924 -0.80825,0.618039 -0.321035,0.269944 -0.30149,0.259103 -0.696767,0.386454 -0.623261,0.200802 -0.655775,0.202003 -0.362852,0.0134 z M 22.101449,21.070234 c 0.04756,-0.09197 0.09902,-0.167224 0.114346,-0.167224 0.01533,0 -0.01104,0.07525 -0.0586,0.167224 -0.04756,0.09197 -0.09902,0.167224 -0.114346,0.167224 -0.01533,0 0.01104,-0.07525 0.0586,-0.167224 z m 0.292441,-0.501672 c 0.08442,-0.168618 0.166272,-0.319119 0.181894,-0.334448 0.01562,-0.01533 0.07833,-0.128205 0.139354,-0.250836 0.06102,-0.122631 0.1262,-0.235508 0.144839,-0.250837 0.01864,-0.01533 0.08584,-0.146181 0.149332,-0.290783 0.06349,-0.144603 0.18869,-0.370355 0.278214,-0.501673 0.08952,-0.131317 0.344763,-0.602471 0.567198,-1.047008 0.406144,-0.811682 0.504253,-0.975979 0.504253,-0.844437 0,0.06572 -0.438465,0.951779 -0.500616,1.011661 -0.01591,0.01533 -0.140692,0.259894 -0.277294,0.543478 -0.136602,0.283584 -0.268291,0.515607 -0.292642,0.515607 -0.02435,0 -0.04427,0.02818 -0.04427,0.06262 0,0.03444 -0.107256,0.24138 -0.238346,0.459866 -0.131091,0.218487 -0.300405,0.51718 -0.376254,0.663763 -0.07585,0.146583 -0.194437,0.334711 -0.263528,0.418061 -0.11151,0.134524 -0.108379,0.11711 0.02787,-0.155032 z"
         style="fill:#43605f;stroke-width:0.0557414" />
      <path
         id="path2724"
         d="m 18.308967,37.467908 c -0.204056,-0.491173 -0.712124,-1.492321 -0.881854,-1.737696 l -0.134951,-0.195095 0.318842,-0.306577 c 0.175364,-0.168618 0.392069,-0.344181 0.481567,-0.390139 0.604048,-0.310185 2.334563,-1.581709 3.262165,-2.396928 1.000285,-0.879096 2.465916,-2.56115 3.110447,-3.569752 0.165717,-0.259324 0.41093,-0.641485 0.544917,-0.849247 0.317758,-0.49272 1.726,-3.223579 1.774204,-3.440534 0.0034,-0.01533 0.04461,-0.115664 0.09155,-0.222966 0.04695,-0.107302 0.117707,-0.295429 0.157239,-0.41806 0.03953,-0.122631 0.09904,-0.273133 0.132241,-0.334448 0.0332,-0.06132 0.06336,-0.124025 0.06701,-0.139353 0.0037,-0.01533 0.03688,-0.103122 0.07384,-0.195095 0.03696,-0.09197 0.127933,-0.330268 0.202173,-0.529543 0.07424,-0.199275 0.165218,-0.43757 0.202173,-0.529543 0.03696,-0.09197 0.07032,-0.179766 0.07415,-0.195095 0.0038,-0.01533 0.05393,-0.16583 0.111327,-0.334448 0.0574,-0.168618 0.100534,-0.312731 0.09585,-0.320253 -0.0047,-0.0075 0.05254,-0.151752 0.127178,-0.320513 0.07463,-0.16876 0.121465,-0.306837 0.104069,-0.306837 -0.0174,0 -0.0057,-0.03136 0.02595,-0.06968 0.03167,-0.03832 0.09734,-0.223365 0.145929,-0.411207 0.04859,-0.187842 0.123667,-0.409613 0.166838,-0.492825 0.04317,-0.08321 0.146232,-0.406112 0.229025,-0.717555 0.08279,-0.311443 0.186329,-0.679137 0.230081,-0.817097 0.04375,-0.13796 0.09223,-0.313545 0.107734,-0.39019 0.0155,-0.07664 0.07966,-0.32748 0.142569,-0.557413 0.06291,-0.229934 0.125348,-0.48077 0.13875,-0.557414 0.0134,-0.07664 0.04583,-0.202062 0.07207,-0.278707 0.04962,-0.144959 0.147899,-0.478474 0.336724,-1.142698 0.107339,-0.377584 0.13194,-0.47964 0.201554,-0.83612 0.01796,-0.09197 0.05498,-0.217391 0.08227,-0.278707 0.02729,-0.06132 0.07429,-0.236901 0.104455,-0.390189 0.03017,-0.153289 0.120899,-0.542085 0.201632,-0.863991 0.08073,-0.321907 0.155163,-0.62291 0.165398,-0.668897 0.01023,-0.04599 0.04312,-0.190217 0.07308,-0.320513 0.02996,-0.130295 0.04153,-0.2369 0.0257,-0.2369 -0.01582,0 -0.0035,-0.03135 0.02749,-0.06968 0.03095,-0.03832 0.07474,-0.181589 0.09733,-0.318369 0.02258,-0.136781 0.06219,-0.287283 0.08802,-0.334448 0.02583,-0.04717 0.0776,-0.236258 0.115056,-0.420204 0.03745,-0.183947 0.07108,-0.34699 0.07472,-0.362319 0.0691,-0.2910397 0.08974,-0.3830531 0.110403,-0.4921902 0.01352,-0.071429 0.03924,-0.1760301 0.05714,-0.2324476 0.03773,-0.1188735 0.07245,-0.2828718 0.118005,-0.5574136 0.0178,-0.1073021 0.04211,-0.2109805 0.054,-0.2303963 0.0119,-0.019416 0.03674,-0.1322921 0.0552,-0.2508361 0.05855,-0.3758534 0.413775,-1.8867464 0.489705,-2.0828702 0.02973,-0.076789 0.04858,-0.162602 0.122468,-0.5574136 0.01434,-0.076644 0.05144,-0.2522296 0.08244,-0.3901895 0.031,-0.1379598 0.0663,-0.3010033 0.07845,-0.3623188 0.01215,-0.061316 0.0637,-0.2619844 0.114556,-0.4459309 0.183854,-0.664986 0.373293,-1.3984982 0.422043,-1.6341594 0.02738,-0.1323439 0.06167,-0.2598729 0.07621,-0.2833978 0.01454,-0.023525 0.04064,-0.1284541 0.058,-0.2331761 0.03074,-0.1854781 0.08466,-0.3501046 0.226681,-0.6920761 0.0382,-0.091973 0.124244,-0.3051839 0.19122,-0.4738015 0.06697,-0.1686176 0.151395,-0.34420292 0.187599,-0.39018954 0.117469,-0.14920864 0.419262,-0.33444816 0.544886,-0.33444816 0.325105,0 1.34407,1.0253391 1.991725,2.0041851 0.740574,1.1192811 2.13928,3.9925975 2.891034,5.9389587 0.878501,2.2745216 1.627324,4.3846386 3.164972,8.9186176 1.543678,4.551756 2.548079,7.43104 2.994479,8.584169 0.213628,0.55184 0.522035,1.354515 0.68535,1.783724 0.163314,0.429208 0.476807,1.2068 0.69665,1.727982 0.219844,0.521182 0.507869,1.248607 0.640058,1.6165 0.132188,0.367893 0.420629,1.095317 0.640981,1.616499 0.220351,0.521182 0.50855,1.236065 0.640442,1.588629 0.131892,0.352564 0.407477,1.004738 0.612412,1.449275 0.559132,1.212852 0.86832,1.958825 0.793441,1.914326 -0.664241,-0.394745 -2.319803,-1.820266 -3.939383,-3.392006 -1.499255,-1.454969 -3.209207,-2.768398 -3.961091,-3.042548 -0.362722,-0.132256 -0.42185,-0.206682 -0.471349,-0.593298 -0.01371,-0.107049 -0.04046,-0.243584 -0.05944,-0.30341 -0.01899,-0.05983 -0.04283,-0.18865 -0.05299,-0.286276 -0.01015,-0.09763 -0.05773,-0.372106 -0.105715,-0.609955 -0.04799,-0.23785 -0.09203,-0.513769 -0.09786,-0.613155 -0.0058,-0.09939 -0.04088,-0.24341 -0.07787,-0.320055 -0.03699,-0.07664 -0.08495,-0.245827 -0.106576,-0.375962 -0.02162,-0.130135 -0.06221,-0.250762 -0.0902,-0.268061 -0.02799,-0.0173 -0.05089,-0.101042 -0.05089,-0.186097 0,-0.08505 -0.01565,-0.17029 -0.03477,-0.189414 -0.0553,-0.0553 -0.298037,-0.8057 -0.333862,-1.032094 -0.01792,-0.113243 -0.04407,-0.224615 -0.0581,-0.247493 -0.01404,-0.02288 -0.03501,-0.08559 -0.04661,-0.139354 -0.03975,-0.184222 -0.247682,-0.96548 -0.356608,-1.339902 -0.0599,-0.205895 -0.137577,-0.524856 -0.17262,-0.708802 -0.03504,-0.183947 -0.102023,-0.454463 -0.148845,-0.601147 -0.04682,-0.146685 -0.09189,-0.32227 -0.100161,-0.39019 -0.01949,-0.160097 -0.239086,-1.102405 -0.340544,-1.461283 -0.04334,-0.153289 -0.116413,-0.466834 -0.162394,-0.696767 -0.04598,-0.229933 -0.09649,-0.468227 -0.11224,-0.529543 -0.01575,-0.06132 -0.06787,-0.33603 -0.115823,-0.610478 -0.04795,-0.274447 -0.09914,-0.518333 -0.113745,-0.54197 -0.01461,-0.02364 -0.03852,-0.137717 -0.05314,-0.253513 -0.01462,-0.115796 -0.04109,-0.256811 -0.05882,-0.313366 -0.01773,-0.05656 -0.07878,-0.319933 -0.135666,-0.585284 -0.05689,-0.265352 -0.143226,-0.658042 -0.191861,-0.872646 -0.04864,-0.214605 -0.100246,-0.477983 -0.11469,-0.585285 -0.01444,-0.107302 -0.0628,-0.358138 -0.107463,-0.557413 -0.147013,-0.655959 -0.299199,-1.407974 -0.473779,-2.341137 -0.09464,-0.505853 -0.200669,-1.045151 -0.235627,-1.19844 -0.03496,-0.153288 -0.0686,-0.328874 -0.07477,-0.390189 -0.01004,-0.09982 -0.08779,-0.479224 -0.159921,-0.780379 C 37.003581,10.938255 36.889802,10.40736 36.844963,10.15049 36.816062,9.984932 36.767534,9.7717213 36.737122,9.6766884 36.70671,9.5816561 36.670707,9.4385819 36.657116,9.3587464 36.643526,9.2789108 36.593149,9.0657001 36.545168,8.8849448 36.401053,8.3420318 36.160131,7.337694 36.14542,7.2185061 36.1276,7.0741354 35.87396,6.1653333 35.702045,5.6298774 35.628221,5.3999442 35.5271,5.0738573 35.47733,4.9052397 35.364218,4.5220192 35.170609,4.0593556 34.882518,3.483835 34.510633,2.7409155 34.156193,2.3411371 33.869412,2.3411371 c -0.135601,0 -0.46198,0.3559897 -0.511047,0.5574136 -0.0037,0.015329 -0.0206,0.065496 -0.03748,0.1114827 -0.222541,0.6063668 -0.447,1.5430026 -0.519653,2.1684405 -0.01924,0.1656077 -0.04369,0.3463201 -0.05433,0.4015829 -0.03279,0.1702815 -0.196942,1.3038796 -0.217868,1.504577 -0.01087,0.1042876 -0.03442,0.2523227 -0.05234,0.3289671 -0.01791,0.076644 -0.0477,0.3023969 -0.0662,0.5016722 -0.0185,0.1992754 -0.04145,0.4375697 -0.051,0.5295429 -0.0096,0.091973 -0.03291,0.3929766 -0.05191,0.6688964 -0.01899,0.2759197 -0.04613,0.5894648 -0.06029,0.696767 -0.01417,0.1073021 -0.04191,0.3832216 -0.06165,0.6131546 -0.01974,0.229933 -0.04426,0.505853 -0.0545,0.613155 -0.05637,0.590755 -0.131937,1.615484 -0.162376,2.201784 -0.0191,0.367893 -0.04781,0.83194 -0.06381,1.031215 -0.016,0.199276 -0.03722,0.487737 -0.04717,0.641026 -0.0195,0.300415 -0.05253,0.743179 -0.143458,1.923077 -0.0319,0.413879 -0.06833,0.953177 -0.08097,1.198439 -0.09157,1.777566 -0.148583,2.490623 -0.307492,3.846154 -0.05741,0.489693 -0.0928,0.802457 -0.138771,1.22631 -0.03007,0.277264 -0.05974,0.486612 -0.106646,0.752508 -0.01352,0.07664 -0.0394,0.264772 -0.0575,0.41806 -0.01811,0.153289 -0.04476,0.341416 -0.05924,0.41806 -0.01448,0.07664 -0.03752,0.227147 -0.05121,0.334449 -0.01369,0.107302 -0.04829,0.314242 -0.07689,0.459866 -0.0286,0.145624 -0.03962,0.264771 -0.0245,0.264771 0.01513,0 0.0022,0.03136 -0.02882,0.06968 -0.03098,0.03832 -0.07367,0.207637 -0.09487,0.376254 -0.02943,0.234121 -0.177157,0.935135 -0.281909,1.337793 -0.004,0.01533 -0.02741,0.128205 -0.05206,0.250836 -0.02464,0.122631 -0.05962,0.248049 -0.07772,0.278707 -0.0369,0.06249 -0.05511,0.137584 -0.100086,0.412858 -0.01707,0.104441 -0.07717,0.297533 -0.133561,0.429095 -0.05639,0.131561 -0.158824,0.422364 -0.227622,0.646228 -0.0688,0.223864 -0.128954,0.419567 -0.133681,0.434896 -0.03048,0.09886 -0.205648,0.488116 -0.250836,0.557413 -0.02999,0.04599 -0.08085,0.146321 -0.113018,0.222966 -0.119486,0.284654 -0.297023,0.641904 -0.33241,0.668896 -0.0201,0.01533 -0.10865,0.153289 -0.196785,0.306578 -0.217024,0.37746 -0.955334,1.2855 -1.287628,1.583641 -0.148752,0.133463 -0.370793,0.335288 -0.493424,0.4485 -0.122631,0.113211 -0.335842,0.281929 -0.473802,0.374927 -0.28075,0.189253 -1.564492,0.917428 -1.950947,1.106633 -0.242618,0.118783 -2.015516,0.775972 -2.926422,1.084783 -0.245262,0.08315 -0.709308,0.256397 -1.031215,0.384998 -0.321906,0.128601 -0.785953,0.312204 -1.031215,0.408006 -0.247287,0.09659 -0.598196,0.292136 -0.787746,0.438967 l -0.341815,0.264781 z"
         style="fill:#a4290e;stroke-width:0.0557414" />
      <path
         id="path2722"
         d="M 16.799828,34.716901 C 16.403333,34.078728 16.182975,33.796397 15.655353,33.25055 15.295964,32.878747 14.915668,32.528096 14.810252,32.471325 l -0.191666,-0.103219 0.240096,-0.315705 c 0.132052,-0.173637 0.562511,-0.63999 0.956574,-1.036338 0.715586,-0.719736 1.114625,-1.163957 1.576048,-1.754502 0.07664,-0.09809 0.227146,-0.283341 0.334448,-0.411665 0.107303,-0.128325 0.245262,-0.304424 0.306578,-0.391332 0.06131,-0.08691 0.211817,-0.275869 0.334448,-0.419913 0.122631,-0.144044 0.260591,-0.320153 0.306578,-0.391353 0.04599,-0.0712 0.121978,-0.169955 0.168871,-0.219455 0.04689,-0.0495 0.17231,-0.214326 0.278707,-0.36628 0.177738,-0.253845 0.545899,-0.752691 0.660167,-0.894506 0.02626,-0.03259 0.08018,-0.119863 0.119828,-0.193944 0.03965,-0.07408 0.09948,-0.162217 0.132958,-0.195859 0.03348,-0.03364 0.223917,-0.319088 0.423192,-0.634324 0.199275,-0.315236 0.513442,-0.802442 0.698148,-1.082681 0.396138,-0.601023 0.730401,-1.146607 1.126297,-1.838338 0.290581,-0.507718 0.326061,-0.566781 0.490926,-0.817229 0.09082,-0.13796 0.308311,-0.514214 0.483323,-0.83612 0.175012,-0.321907 0.407774,-0.748328 0.517249,-0.947603 0.335957,-0.611539 0.690405,-1.2942 0.750329,-1.445125 0.03134,-0.07893 0.08155,-0.181129 0.111581,-0.227116 0.072,-0.110253 1.276331,-2.611929 1.663734,-3.455964 0.09146,-0.199276 0.308632,-0.663323 0.482594,-1.031216 0.53688,-1.13539 0.754972,-1.616867 0.754972,-1.666735 0,-0.02091 0.07808,-0.206294 0.173508,-0.411955 0.366571,-0.790005 0.434809,-0.941837 0.574549,-1.278394 0.137943,-0.3322305 0.306776,-0.7171346 0.538222,-1.2270348 0.05899,-0.1299616 0.107255,-0.2522431 0.107255,-0.2717369 0,-0.019493 0.06057,-0.1765396 0.134599,-0.3489906 0.07403,-0.1724515 0.167944,-0.3950696 0.208701,-0.4947073 0.04076,-0.099638 0.08888,-0.1811594 0.106947,-0.1811594 0.01807,0 0.0347,-0.031355 0.03696,-0.069677 0.0045,-0.076173 0.338425,-0.9078518 0.54273,-1.351728 0.375277,-0.815334 0.47508,-1.0508455 0.47508,-1.1210855 0,-0.042545 0.02508,-0.077354 0.05574,-0.077354 0.03066,0 0.05574,-0.027297 0.05574,-0.060661 0,-0.033364 0.07798,-0.2277615 0.173297,-0.4319955 0.09531,-0.2042341 0.209144,-0.4712586 0.252958,-0.5933877 0.04381,-0.1221292 0.11691,-0.2789018 0.162436,-0.3483835 0.04553,-0.069482 0.06658,-0.1263305 0.04679,-0.1263305 -0.01979,0 -0.01028,-0.031355 0.02114,-0.069677 0.03142,-0.038322 0.21826,-0.3832219 0.415206,-0.7664437 0.391395,-0.7615866 0.627198,-1.15441 0.864274,-1.4397901 0.33475,-0.40295336 0.637199,-0.67154543 0.795301,-0.70627044 0.09123,-0.0200363 0.17856,-0.056972 0.194077,-0.0820792 0.03645,-0.058978 0.344607,0.0108899 0.558579,0.12664571 0.15392,0.0832686 0.156998,0.0905163 0.03932,0.0925733 -0.130603,0.002283 -0.432026,0.18678621 -0.550034,0.33667991 -0.0362,0.0459866 -0.120624,0.22157192 -0.187599,0.39018952 -0.06698,0.1686176 -0.153024,0.3818283 -0.19122,0.4738015 -0.142017,0.3419715 -0.195938,0.506598 -0.226681,0.6920761 -0.01736,0.104722 -0.04346,0.2096513 -0.058,0.2331761 -0.01454,0.023525 -0.04883,0.1510539 -0.07621,0.2833978 -0.04875,0.2356612 -0.238189,0.9691734 -0.422043,1.6341594 -0.05086,0.1839465 -0.102408,0.3846154 -0.114556,0.4459309 -0.01215,0.061316 -0.04745,0.224359 -0.07845,0.3623188 -0.031,0.1379599 -0.0681,0.3135452 -0.08244,0.3901895 -0.07388,0.3948116 -0.09274,0.4806243 -0.122468,0.5574136 -0.07593,0.1961238 -0.431158,1.7070168 -0.489705,2.0828702 -0.01847,0.118544 -0.04331,0.2314202 -0.0552,0.2508361 -0.01189,0.019416 -0.0362,0.1230942 -0.054,0.2303963 -0.04556,0.2745418 -0.08028,0.4385401 -0.118005,0.5574136 -0.01791,0.056418 -0.04362,0.161019 -0.05714,0.2324476 -0.02066,0.1091371 -0.0413,0.2011505 -0.110403,0.4921902 -0.0036,0.01533 -0.03726,0.178372 -0.07472,0.362319 -0.03746,0.183946 -0.08923,0.373038 -0.115056,0.420204 -0.02583,0.04716 -0.06544,0.197667 -0.08802,0.334448 -0.02259,0.13678 -0.06638,0.280047 -0.09733,0.318369 -0.03095,0.03832 -0.04332,0.06968 -0.02749,0.06968 0.01582,0 0.0043,0.106605 -0.0257,0.2369 -0.02996,0.130296 -0.06285,0.274527 -0.07308,0.320513 -0.01024,0.04599 -0.08466,0.34699 -0.165398,0.668897 -0.08073,0.321906 -0.171467,0.710702 -0.201632,0.863991 -0.03016,0.153288 -0.07717,0.328874 -0.104455,0.390189 -0.02729,0.06132 -0.06431,0.186734 -0.08227,0.278707 -0.06961,0.35648 -0.09421,0.458536 -0.201554,0.83612 -0.188825,0.664224 -0.287104,0.997739 -0.336724,1.142698 -0.02624,0.07664 -0.05867,0.202063 -0.07207,0.278707 -0.0134,0.07664 -0.07584,0.32748 -0.13875,0.557414 -0.06291,0.229933 -0.127066,0.480769 -0.142569,0.557413 -0.0155,0.07664 -0.06398,0.25223 -0.107734,0.39019 -0.04375,0.13796 -0.147288,0.505654 -0.230081,0.817097 -0.08279,0.311443 -0.185854,0.634344 -0.229025,0.717555 -0.04317,0.08321 -0.118248,0.304983 -0.166838,0.492825 -0.04859,0.187842 -0.114258,0.372885 -0.145929,0.411207 -0.03167,0.03832 -0.04335,0.06968 -0.02595,0.06968 0.0174,0 -0.02944,0.138077 -0.104069,0.306837 -0.07463,0.168761 -0.13603,0.325534 -0.136435,0.348384 -3.9e-4,0.02285 -0.04354,0.166964 -0.09585,0.320253 -0.05231,0.153288 -0.09824,0.291248 -0.10207,0.306577 -0.0038,0.01533 -0.03719,0.103122 -0.07415,0.195095 -0.03695,0.09197 -0.127933,0.330268 -0.202173,0.529543 -0.07424,0.199275 -0.165217,0.43757 -0.202173,0.529543 -0.03696,0.09197 -0.07018,0.179766 -0.07384,0.195095 -0.0037,0.01533 -0.03381,0.07804 -0.06701,0.139353 -0.0332,0.06132 -0.09271,0.211817 -0.132241,0.334448 -0.03953,0.122631 -0.110289,0.310758 -0.157239,0.41806 -0.04695,0.107302 -0.08815,0.207637 -0.09155,0.222966 -0.0482,0.216955 -1.456446,2.947814 -1.774204,3.440534 -0.133987,0.207762 -0.3792,0.589923 -0.544917,0.849247 -0.644531,1.008602 -2.110162,2.690656 -3.110447,3.569752 -0.928796,0.816268 -2.661428,2.089148 -3.262676,2.396928 -0.08978,0.04596 -0.299514,0.21525 -0.466077,0.376203 -0.166562,0.160953 -0.310102,0.292642 -0.318977,0.292642 -0.0089,0 -0.237106,-0.355655 -0.507178,-0.790345 z m -5.038401,-2.466602 c 0,-0.01533 0.05017,-0.05472 0.111483,-0.08753 0.06132,-0.03281 0.111482,-0.04712 0.111482,-0.03179 0,0.01533 -0.05017,0.05472 -0.111482,0.08753 -0.06132,0.03281 -0.111483,0.04712 -0.111483,0.03179 z m 0.780379,-0.443889 c 0,-0.01205 0.03893,-0.03684 0.08651,-0.0551 0.04961,-0.01904 0.07198,-0.0097 0.05245,0.02191 -0.03273,0.05297 -0.138959,0.07834 -0.138959,0.0332 z m 3.901895,-3.122404 c 0,-0.01061 0.03763,-0.05052 0.08361,-0.08869 0.04819,-0.04 0.08361,-0.04541 0.08361,-0.01279 0,0.03113 -0.03763,0.07104 -0.08361,0.08869 -0.04599,0.01765 -0.08361,0.0234 -0.08361,0.01279 z m 3.623189,-4.569043 c 0,-0.01158 0.0382,-0.05275 0.08489,-0.0915 0.07098,-0.05891 0.07913,-0.05546 0.04978,0.02105 -0.02998,0.07813 -0.134665,0.132899 -0.134665,0.07045 z m 0.08361,-0.343274 c -0.06132,-0.07491 -0.140747,-0.136459 -0.176515,-0.136776 -0.03577,-3.34e-4 -0.07339,-0.01943 -0.08361,-0.04246 -0.01022,-0.02304 -0.219249,-0.197712 -0.464511,-0.388168 -0.245262,-0.190457 -0.578992,-0.466112 -0.741621,-0.612567 -0.16263,-0.146455 -0.338215,-0.289495 -0.39019,-0.317868 -0.221818,-0.12109 -0.899202,-0.745043 -1.397457,-1.287226 -0.534238,-0.581341 -1.84208,-2.364157 -1.646011,-2.243801 0.06249,0.03836 1.656421,-0.04597 2.335814,-0.123586 0.704043,-0.08043 2.221911,-0.420647 2.470686,-0.553787 0.06682,-0.03576 0.403632,-0.154647 0.748477,-0.264194 0.344845,-0.109547 0.915136,-0.312537 1.267314,-0.451088 0.691125,-0.271897 1.791331,-0.572017 2.09695,-0.572017 0.144982,0 0.189148,0.02343 0.189148,0.100335 0,0.05518 -0.02246,0.124164 -0.04991,0.153289 -0.02745,0.02912 -0.231906,0.416666 -0.45434,0.861204 -0.222435,0.444537 -0.477673,0.915691 -0.567198,1.047008 -0.08952,0.131318 -0.21472,0.35707 -0.278214,0.501673 -0.06349,0.144602 -0.130692,0.275455 -0.149332,0.290783 -0.01864,0.01533 -0.08382,0.128206 -0.144839,0.250837 -0.06102,0.122631 -0.123731,0.235507 -0.139354,0.250836 -0.01562,0.01533 -0.07857,0.128145 -0.139887,0.250703 -0.10539,0.210656 -0.199649,0.369239 -0.718863,1.209432 -0.365635,0.591673 -1.425827,2.219911 -1.44304,2.216217 -0.0066,-0.0014 -0.06218,-0.06387 -0.123492,-0.138777 z m -0.360115,-9.913775 c 0.07786,-0.04459 0.378859,-0.148862 0.668896,-0.231725 0.689724,-0.197053 1.198963,-0.398807 1.474942,-0.584353 0.122631,-0.08245 0.310758,-0.194711 0.41806,-0.249473 0.27518,-0.140441 0.797022,-0.545138 1.254181,-0.972638 0.395939,-0.370252 0.31663,-0.253129 -0.137091,0.202456 -0.257425,0.258483 -1.304372,1.067554 -1.451538,1.121736 -0.04599,0.01693 -0.09615,0.04616 -0.111483,0.06496 -0.01533,0.0188 -0.215997,0.12481 -0.44593,0.235587 -0.44943,0.216527 -0.896991,0.361201 -1.254181,0.405414 -0.122631,0.01518 -0.298216,0.04144 -0.39019,0.05835 l -0.167224,0.03075 z m 4.566135,-2.75333 c 0.193445,-0.223303 0.36516,-0.392563 0.38159,-0.376134 0.01643,0.01643 -0.141843,0.199133 -0.351718,0.406007 l -0.38159,0.376134 z"
         style="fill:#591712;stroke-width:0.0557414" />
    </g>
  </g>
</svg>
